<svg width="173" height="86" viewBox="0 0 173 86" fill="none" xmlns="http://www.w3.org/2000/svg">
<path d="M51.64 50H57.92L60.72 70.04H60.8L63.6 50H69.88V78H65.72V56.8H65.64L62.44 78H58.76L55.56 56.8H55.48V78H51.64V50ZM76.5634 50H82.5234L87.0834 78H82.6834L81.8834 72.44V72.52H76.8834L76.0834 78H72.0034L76.5634 50ZM81.3634 68.72L79.4034 54.88H79.3234L77.4034 68.72H81.3634ZM93.1763 63.68L88.3363 50H92.9763L95.9363 59.04H96.0163L99.0563 50H103.216L98.3763 63.68L103.456 78H98.8163L95.6163 68.24H95.5363L92.2563 78H88.0963L93.1763 63.68ZM105.546 50H109.946V78H105.546V50ZM113.242 50H119.522L122.322 70.04H122.402L125.202 50H131.482V78H127.322V56.8H127.242L124.042 78H120.362L117.162 56.8H117.082V78H113.242V50ZM141.165 78.4C139.032 78.4 137.405 77.8 136.285 76.6C135.165 75.3733 134.605 73.6267 134.605 71.36V50H139.005V71.68C139.005 72.64 139.192 73.3333 139.565 73.76C139.965 74.1867 140.525 74.4 141.245 74.4C141.965 74.4 142.512 74.1867 142.885 73.76C143.285 73.3333 143.485 72.64 143.485 71.68V50H147.725V71.36C147.725 73.6267 147.165 75.3733 146.045 76.6C144.925 77.8 143.298 78.4 141.165 78.4ZM150.859 50H157.139L159.939 70.04H160.019L162.819 50H169.099V78H164.939V56.8H164.859L161.659 78H157.979L154.779 56.8H154.699V78H150.859V50Z" fill="white"/>
<path d="M52.05 5H66.6V10H57.55V19.75H64.65V24.75H57.55V40H52.05V5ZM72.4875 5H77.9875V40H72.4875V5ZM89.6566 10H83.9066V5H100.907V10H95.1566V40H89.6566V10ZM106.82 5H113.72L119.07 25.95H119.17V5H124.07V40H118.42L111.82 14.45H111.72V40H106.82V5ZM131.407 5H146.407V10H136.907V19.25H144.457V24.25H136.907V35H146.407V40H131.407V5ZM160.069 40.5C157.402 40.5 155.386 39.75 154.019 38.25C152.652 36.7167 151.969 34.5333 151.969 31.7V29.7H157.169V32.1C157.169 34.3667 158.119 35.5 160.019 35.5C160.952 35.5 161.652 35.2333 162.119 34.7C162.619 34.1333 162.869 33.2333 162.869 32C162.869 30.5333 162.536 29.25 161.869 28.15C161.202 27.0167 159.969 25.6667 158.169 24.1C155.902 22.1 154.319 20.3 153.419 18.7C152.519 17.0667 152.069 15.2333 152.069 13.2C152.069 10.4333 152.769 8.3 154.169 6.8C155.569 5.26666 157.602 4.5 160.269 4.5C162.902 4.5 164.886 5.26666 166.219 6.8C167.586 8.3 168.269 10.4667 168.269 13.3V14.75H163.069V12.95C163.069 11.75 162.836 10.8833 162.369 10.35C161.902 9.78333 161.219 9.5 160.319 9.5C158.486 9.5 157.569 10.6167 157.569 12.85C157.569 14.1167 157.902 15.3 158.569 16.4C159.269 17.5 160.519 18.8333 162.319 20.4C164.619 22.4 166.202 24.2167 167.069 25.85C167.936 27.4833 168.369 29.4 168.369 31.6C168.369 34.4667 167.652 36.6667 166.219 38.2C164.819 39.7333 162.769 40.5 160.069 40.5Z" fill="white"/>
<rect x="18.1176" y="23.647" width="7.76471" height="41.4118" fill="#F80855"/>
<rect y="15.8823" width="44" height="10.3529" rx="5.17647" fill="#F80855"/>
<rect x="7.76471" y="5.5293" width="25.8824" height="7.76471" rx="3.88235" fill="#F80855"/>
<rect x="44" y="67.647" width="44" height="10.3529" rx="5.17647" transform="rotate(-180 44 67.647)" fill="#F80855"/>
<rect x="36.2353" y="78" width="25.8824" height="7.76471" rx="3.88235" transform="rotate(-180 36.2353 78)" fill="#F80855"/>
</svg>
