<svg width="24" height="24" viewBox="0 0 24 24" fill="none" xmlns="http://www.w3.org/2000/svg">
<path d="M21.7299 18L13.7299 3.99998C13.5555 3.69219 13.3025 3.43617 12.9968 3.25805C12.6912 3.07993 12.3437 2.98608 11.9899 2.98608C11.6361 2.98608 11.2887 3.07993 10.983 3.25805C10.6773 3.43617 10.4243 3.69219 10.2499 3.99998L2.24994 18C2.07362 18.3054 1.98116 18.6519 1.98194 19.0045C1.98273 19.3571 2.07671 19.7033 2.25438 20.0078C2.43205 20.3124 2.68708 20.5646 2.99363 20.7388C3.30018 20.9131 3.64734 21.0032 3.99994 21H19.9999C20.3508 20.9997 20.6954 20.907 20.9992 20.7313C21.3029 20.5556 21.5551 20.3031 21.7304 19.9991C21.9057 19.6951 21.9979 19.3504 21.9979 18.9995C21.9978 18.6486 21.9054 18.3039 21.7299 18Z" stroke="#FF0000" stroke-width="2" stroke-linecap="round" stroke-linejoin="round"/>
<path d="M12 9V13" stroke="#FF0000" stroke-width="2" stroke-linecap="round" stroke-linejoin="round"/>
<path d="M12 17H12.01" stroke="#FF0000" stroke-width="2" stroke-linecap="round" stroke-linejoin="round"/>
</svg>
